<svg width="46" height="46" viewBox="0 0 46 46" fill="none" xmlns="http://www.w3.org/2000/svg">
<g filter="url(#filter0_b_1_126)">
<rect x="0.178955" y="0.0671692" width="45.4282" height="45.4282" rx="22.7141" fill="#FF8D24" fill-opacity="0.45"/>
<path fill-rule="evenodd" clip-rule="evenodd" d="M19.9685 17.1842C19.7839 17.4335 19.8051 17.7892 20.0383 18.0148C20.2866 18.2631 20.6921 18.2631 20.9403 18.0148L22.256 16.6908V20.1167H23.5304V16.6908L24.8461 18.0148L24.9175 18.0764C25.1668 18.261 25.5224 18.2405 25.7481 18.0148C25.8722 17.8907 25.9384 17.7252 25.9384 17.5597C25.9384 17.4025 25.8722 17.237 25.7481 17.1129L23.3401 14.6966L23.265 14.6291C23.158 14.5486 23.0256 14.5062 22.8932 14.5062C22.7194 14.5062 22.5622 14.5724 22.4381 14.6966L20.0301 17.1129L19.9685 17.1842ZM18.1193 20.1209C16.172 20.2129 14.618 21.851 14.618 23.8466V27.9553L14.622 28.1311C14.7125 30.1128 16.3229 31.7019 18.3004 31.7019H27.4939L27.6668 31.6978C29.6141 31.6058 31.168 29.9675 31.168 27.9637V23.8635L31.164 23.6869C31.0732 21.6979 29.4551 20.1169 27.4857 20.1169H23.5302V25.1685L23.5243 25.2573C23.4815 25.5762 23.2116 25.8168 22.893 25.8168C22.5372 25.8168 22.2559 25.5305 22.2559 25.1685V20.1169H18.2921L18.1193 20.1209Z" fill="white"/>
</g>
<defs>
<filter id="filter0_b_1_126" x="-3.82104" y="-3.93283" width="53.4282" height="53.4282" filterUnits="userSpaceOnUse" color-interpolation-filters="sRGB">
<feFlood flood-opacity="0" result="BackgroundImageFix"/>
<feGaussianBlur in="BackgroundImageFix" stdDeviation="2"/>
<feComposite in2="SourceAlpha" operator="in" result="effect1_backgroundBlur_1_126"/>
<feBlend mode="normal" in="SourceGraphic" in2="effect1_backgroundBlur_1_126" result="shape"/>
</filter>
</defs>
</svg>
