<svg width="46" height="46" viewBox="0 0 46 46" fill="none" xmlns="http://www.w3.org/2000/svg">
<g filter="url(#filter0_b_1_118)">
<rect x="0.178955" y="0.0671692" width="45.4282" height="45.4282" rx="22.7141" fill="#FF8D24" fill-opacity="0.45"/>
<path d="M22.2558 18.8842V15.5667C22.2558 15.214 22.5372 14.92 22.893 14.92C23.2116 14.92 23.4815 15.167 23.5243 15.4799L23.5302 15.5667V18.8842L27.4855 18.8844C29.455 18.8844 31.073 20.4972 31.1639 22.5085L31.1679 22.687V26.857C31.1679 28.8824 29.6061 30.545 27.666 30.6384L27.4938 30.6425H18.292C16.3226 30.6425 14.7123 29.0378 14.6219 27.0191L14.6179 26.8399L14.6179 22.6784C14.6179 20.653 16.1719 18.9824 18.1116 18.8886L18.2837 18.8844H22.2557V24.1824L20.9317 22.8152C20.6835 22.5588 20.278 22.5588 20.0298 22.8152C19.9056 22.9433 19.8477 23.1142 19.8477 23.2851C19.8477 23.415 19.8848 23.5504 19.9632 23.665L20.0298 23.7466L22.4378 26.2418C22.5536 26.3699 22.7191 26.4383 22.8929 26.4383C23.0308 26.4383 23.1688 26.3908 23.2779 26.3008L23.3398 26.2418L25.7478 23.7466C25.996 23.4902 25.996 23.0715 25.7478 22.8152C25.5221 22.5821 25.1665 22.5609 24.9172 22.7516L24.8458 22.8152L23.5301 24.1824V18.8844L22.2558 18.8842Z" fill="white"/>
</g>
<defs>
<filter id="filter0_b_1_118" x="-3.82104" y="-3.93283" width="53.4282" height="53.4282" filterUnits="userSpaceOnUse" color-interpolation-filters="sRGB">
<feFlood flood-opacity="0" result="BackgroundImageFix"/>
<feGaussianBlur in="BackgroundImageFix" stdDeviation="2"/>
<feComposite in2="SourceAlpha" operator="in" result="effect1_backgroundBlur_1_118"/>
<feBlend mode="normal" in="SourceGraphic" in2="effect1_backgroundBlur_1_118" result="shape"/>
</filter>
</defs>
</svg>
